<mxfile host="Electron" agent="Mozilla/5.0 (Windows NT 10.0; Win64; x64) AppleWebKit/537.36 (KHTML, like Gecko) draw.io/24.7.17 Chrome/128.0.6613.36 Electron/32.0.1 Safari/537.36" version="24.7.17">
  <diagram name="Pagina-1" id="FTHfxPij3UVQuxliNXez">
    <mxGraphModel dx="858" dy="508" grid="1" gridSize="10" guides="1" tooltips="1" connect="1" arrows="1" fold="1" page="1" pageScale="1" pageWidth="827" pageHeight="1169" math="0" shadow="0">
      <root>
        <mxCell id="0" />
        <mxCell id="1" parent="0" />
        <mxCell id="WswacCXVIzSuOMYkpevD-19" style="edgeStyle=orthogonalEdgeStyle;rounded=0;orthogonalLoop=1;jettySize=auto;html=1;exitX=1;exitY=0.5;exitDx=0;exitDy=0;entryX=0;entryY=0.5;entryDx=0;entryDy=0;" edge="1" parent="1" source="WswacCXVIzSuOMYkpevD-2" target="WswacCXVIzSuOMYkpevD-16">
          <mxGeometry relative="1" as="geometry" />
        </mxCell>
        <mxCell id="WswacCXVIzSuOMYkpevD-2" value="SENSORS&amp;nbsp;&lt;div&gt;BOARD&lt;/div&gt;" style="rounded=0;whiteSpace=wrap;html=1;" vertex="1" parent="1">
          <mxGeometry x="220" y="270" width="100" height="100" as="geometry" />
        </mxCell>
        <mxCell id="WswacCXVIzSuOMYkpevD-20" style="edgeStyle=orthogonalEdgeStyle;rounded=0;orthogonalLoop=1;jettySize=auto;html=1;exitX=0;exitY=0.5;exitDx=0;exitDy=0;entryX=1;entryY=0.5;entryDx=0;entryDy=0;" edge="1" parent="1" source="WswacCXVIzSuOMYkpevD-3" target="WswacCXVIzSuOMYkpevD-16">
          <mxGeometry relative="1" as="geometry" />
        </mxCell>
        <mxCell id="WswacCXVIzSuOMYkpevD-3" value="MOTORS&lt;div&gt;BOARD&lt;/div&gt;" style="rounded=0;whiteSpace=wrap;html=1;" vertex="1" parent="1">
          <mxGeometry x="460" y="270" width="100" height="100" as="geometry" />
        </mxCell>
        <mxCell id="WswacCXVIzSuOMYkpevD-10" style="edgeStyle=orthogonalEdgeStyle;rounded=0;orthogonalLoop=1;jettySize=auto;html=1;exitX=0.25;exitY=1;exitDx=0;exitDy=0;entryX=0.5;entryY=0;entryDx=0;entryDy=0;" edge="1" parent="1" source="WswacCXVIzSuOMYkpevD-5" target="WswacCXVIzSuOMYkpevD-2">
          <mxGeometry relative="1" as="geometry" />
        </mxCell>
        <mxCell id="WswacCXVIzSuOMYkpevD-12" style="edgeStyle=orthogonalEdgeStyle;rounded=0;orthogonalLoop=1;jettySize=auto;html=1;exitX=0.75;exitY=1;exitDx=0;exitDy=0;entryX=0.5;entryY=0;entryDx=0;entryDy=0;" edge="1" parent="1" source="WswacCXVIzSuOMYkpevD-5" target="WswacCXVIzSuOMYkpevD-3">
          <mxGeometry relative="1" as="geometry" />
        </mxCell>
        <mxCell id="WswacCXVIzSuOMYkpevD-17" style="edgeStyle=orthogonalEdgeStyle;rounded=0;orthogonalLoop=1;jettySize=auto;html=1;entryX=0.5;entryY=0;entryDx=0;entryDy=0;" edge="1" parent="1" source="WswacCXVIzSuOMYkpevD-5" target="WswacCXVIzSuOMYkpevD-16">
          <mxGeometry relative="1" as="geometry" />
        </mxCell>
        <mxCell id="WswacCXVIzSuOMYkpevD-5" value="POWER BOARD" style="rounded=0;whiteSpace=wrap;html=1;" vertex="1" parent="1">
          <mxGeometry x="330" y="170" width="120" height="50" as="geometry" />
        </mxCell>
        <mxCell id="WswacCXVIzSuOMYkpevD-13" style="edgeStyle=orthogonalEdgeStyle;rounded=0;orthogonalLoop=1;jettySize=auto;html=1;entryX=0;entryY=0.5;entryDx=0;entryDy=0;" edge="1" parent="1" source="WswacCXVIzSuOMYkpevD-7" target="WswacCXVIzSuOMYkpevD-5">
          <mxGeometry relative="1" as="geometry" />
        </mxCell>
        <mxCell id="WswacCXVIzSuOMYkpevD-7" value="BATTERIES" style="rounded=0;whiteSpace=wrap;html=1;" vertex="1" parent="1">
          <mxGeometry x="150" y="165" width="120" height="60" as="geometry" />
        </mxCell>
        <mxCell id="WswacCXVIzSuOMYkpevD-14" style="edgeStyle=orthogonalEdgeStyle;rounded=0;orthogonalLoop=1;jettySize=auto;html=1;exitX=0.5;exitY=1;exitDx=0;exitDy=0;" edge="1" parent="1" source="WswacCXVIzSuOMYkpevD-2" target="WswacCXVIzSuOMYkpevD-2">
          <mxGeometry relative="1" as="geometry" />
        </mxCell>
        <mxCell id="WswacCXVIzSuOMYkpevD-16" value="RASPBERRY" style="rounded=0;whiteSpace=wrap;html=1;" vertex="1" parent="1">
          <mxGeometry x="340" y="270" width="100" height="100" as="geometry" />
        </mxCell>
      </root>
    </mxGraphModel>
  </diagram>
</mxfile>
